<svg xmlns="http://www.w3.org/2000/svg" width="172.019" height="172.019" viewBox="0 0 172.019 172.019">
  <g id="Groupe_92" data-name="Groupe 92" transform="translate(-345.196 -189.618)">
    <path id="Tracé_86" data-name="Tracé 86" d="M441.06,274.66H422.551V254.1H441.06c7.282,0,10.541,5.176,10.541,10.307a10.5,10.5,0,0,1-2.6,7.1,10.361,10.361,0,0,1-7.943,3.145m.29,15.269H419.162v24.108H404.585V297.043A18.662,18.662,0,0,1,423.226,278.4l.27-.014H441.06a13.97,13.97,0,0,0,10.7-4.368,14.2,14.2,0,0,0,3.568-9.608c0-6.974-4.9-14.035-14.27-14.035H418.823v23.751c-.161-.035-.3-.063-.476-.1l-.143-.042a18.693,18.693,0,0,1-13.619-17.952V237.216H441.35c14.189,0,25.735,11.825,25.735,26.357s-11.546,26.356-25.735,26.356m0-56.441H400.857v22.541a22.454,22.454,0,0,0,13.43,20.509,22.4,22.4,0,0,0-13.43,20.505v20.723h22.034V293.658H441.35c16.246,0,29.463-13.5,29.463-30.085S457.6,233.488,441.35,233.488" fill="#1a0f1e"/>
    <path id="Tracé_87" data-name="Tracé 87" d="M465.6,346.621a7.273,7.273,0,1,1,4.043,9.457,7.275,7.275,0,0,1-4.043-9.457" fill="#1a0f1e"/>
    <path id="Tracé_88" data-name="Tracé 88" d="M431.2,189.618A86.01,86.01,0,1,0,457.821,357.4a16.726,16.726,0,0,1-1.441-3.515A82.463,82.463,0,1,1,484.573,338.1a16.624,16.624,0,0,1,2.242,3.071A85.958,85.958,0,0,0,431.2,189.618" fill="#1a0f1e"/>
  </g>
</svg>
